<svg xmlns="http://www.w3.org/2000/svg" width="140" height="20" viewBox="0 0 140 20"><g transform="translate(-4704 -561)"><g transform="translate(4697.218 555.475)"><path d="M28.321,5.558h-4a9.559,9.559,0,0,0-6.635,2.182,8.118,8.118,0,0,0-2.429,6.31v11.43H19.9V13.651a3.653,3.653,0,0,1,1.172-2.923,4.766,4.766,0,0,1,3.249-1.055h4a4.772,4.772,0,0,1,3.249,1.055,3.7,3.7,0,0,1,1.172,2.923v11.83h4.644V14.05a8.114,8.114,0,0,0-2.431-6.31,9.554,9.554,0,0,0-6.634-2.182" fill="#004291"/><path d="M71.613,5.558h-4a9.558,9.558,0,0,0-6.634,2.182c-.039.036-.071.075-.109.112-.038-.037-.071-.076-.11-.112a9.553,9.553,0,0,0-6.634-2.182h-4a9.555,9.555,0,0,0-6.634,2.182,8.112,8.112,0,0,0-2.43,6.31v11.43H45.7V13.651a3.651,3.651,0,0,1,1.173-2.923,4.767,4.767,0,0,1,3.249-1.055h4a4.778,4.778,0,0,1,3.25,1.055,3.7,3.7,0,0,1,1.172,2.923v11.83h4.644V13.651a3.653,3.653,0,0,1,1.172-2.923,4.769,4.769,0,0,1,3.249-1.055h4a4.773,4.773,0,0,1,3.249,1.055,3.7,3.7,0,0,1,1.172,2.923v11.83h4.642V14.05a8.112,8.112,0,0,0-2.43-6.31,9.556,9.556,0,0,0-6.634-2.182" fill="#004291"/><path d="M136.478,14.768a3.56,3.56,0,0,0,.751-1.415,9.706,9.706,0,0,0,.241-2.481,4.724,4.724,0,0,0-2.131-4.341,9.4,9.4,0,0,0-4.724-.973H115.857V25.481H131.84a7.4,7.4,0,0,0,4.965-1.42c1.094-.961,1.648-2.548,1.648-4.716,0-2.214-.664-3.751-1.975-4.578M130.669,13H120.5V9.7h10.14c1.946,0,2.215.817,2.215,1.7,0,.829-.265,1.6-2.188,1.6M120.5,17.166h10.8c2.238,0,2.54.995,2.54,1.968,0,1.548-.7,2.179-2.4,2.179H120.5Z" fill="#004291"/><rect width="4.718" height="19.903" transform="translate(142.063 5.578)" fill="#004291"/><path d="M83.777,12.413c.01-.016.021-.032.031-.048l.065-.094c.059-.081.117-.157.179-.234.025-.035.039-.051.052-.067l.029-.035a5.108,5.108,0,0,1,.412-.424l.05-.045c.08-.073.168-.146.259-.22.047-.037.091-.074.14-.112l.024-.016a6.749,6.749,0,0,1,.823-.529l.1-.053c.209-.112.423-.213.646-.307l.024-.01c.107-.045.22-.089.335-.133l.151-.054c.2-.071.411-.139.629-.2.066-.019.135-.04.205-.058.031-.008.061-.016.09-.026s.087-.025.135-.037c.37-.1.727-.175,1.059-.237h0c.157-.029.309-.055.453-.077h.009l.041-.007.061-.009.019,0c.127-.018.247-.034.358-.048l.035-.005h0c.114-.014.22-.027.317-.036l.059-.005.025,0h0l.031,0,.041,0h0l.186-.016h.023l.1-.007.037,0a3.353,3.353,0,0,1,.338-.017h13.766a3.4,3.4,0,0,1,2.665,1.272l-.046-.252c-.021-.1-.043-.194-.068-.293l-.027-.108c-.027-.1-.055-.2-.087-.3l-.078-.24q-.07-.205-.157-.411l0-.013a5.176,5.176,0,0,0-3.928-3.211l-.1-.021c-.093-.017-.189-.033-.286-.047l-.036,0c-.094-.013-.191-.023-.287-.033q-.114-.012-.23-.019c-.051,0-.1-.008-.154-.011l-.031,0c-.138-.006-.278-.01-.423-.01H91.611c-4.243,0-7.71,3.071-7.834,6.888" fill="#004291"/><path d="M108.382,19.342c-.01.047-.023.1-.037.147,0,.005,0,.011,0,.015-.014.051-.028.1-.044.157l-.006.019c-.016.053-.034.11-.053.167l-.005.016c-.02.06-.042.122-.065.184l0,.009a6.6,6.6,0,0,1-.7,1.346l-.008.011q-.077.114-.16.229l-.012.016c-.059.079-.119.158-.183.239l0,0a7.7,7.7,0,0,1-.686.752l-.006.006c-.081.077-.164.155-.251.231l-.048.042c-.075.066-.151.131-.23.2-.023.018-.045.037-.069.054-.076.062-.155.123-.235.184l-.078.057c-.084.061-.171.123-.26.184l-.071.05c-.106.071-.214.141-.326.21l-.025.017q-.369.227-.789.443l-.107.054c-.1.051-.208.1-.315.153l-.148.067c-.1.044-.2.089-.3.132l-.169.07q-.152.062-.312.123l-.179.068c-.112.041-.226.081-.341.12-.059.02-.116.041-.176.06q-.2.066-.42.131l-.122.038c-.179.052-.362.1-.551.152h3.122c4.789,0,8.685-3.186,8.685-7.1V12.625c0-3.689-3.457-6.729-7.862-7.07l.01.005.039.018c.1.046.185.087.267.128l.077.04q.136.072.263.149l.055.034c.09.056.16.1.227.148l.06.041c.077.054.151.111.224.168l.078.064c.065.053.131.108.194.166.016.014.037.034.057.053.057.052.111.1.164.158.019.018.04.041.061.063.067.069.126.133.181.2.021.022.042.048.063.074.039.047.081.1.121.15l.055.07c.049.063.1.13.143.2l.057.083c.037.055.073.111.105.165l.055.086c.038.063.07.12.1.177l.053.1c.034.064.069.13.1.195l.111.236c.017.039.029.065.04.093.026.056.055.125.082.195l.033.082c.021.055.041.111.059.166a.623.623,0,0,1,.027.073c.016.045.033.1.05.147l.04.13c.022.07.042.138.061.2l.06.231c.005.019.012.045.018.072.014.059.031.129.045.2l.011.05.077.421a.332.332,0,0,1,.007.046c.021.129.039.265.052.394l0,.028c.013.107.024.232.033.347.009.1.016.223.022.347l.018.8v5.981a3.179,3.179,0,0,1-.106.811h0a.106.106,0,0,1,0,.013" fill="#004291"/><path d="M84.93,11.9a4.554,4.554,0,0,0-.367.376c-.008.01-.022.028-.038.044l-.04.053c-.055.068-.107.137-.158.206l-.061.086c-.045.069-.092.142-.134.212l-.026.046c-.041.072-.079.144-.112.211-.04.083-.07.152-.095.216s-.048.126-.061.171l-.008.023c-.013.042-.024.076-.031.105l-.008.032c0,.021-.01.039-.012.054l-.005.027v4.63c0,3.917,3.5,7.1,7.8,7.1H98.03c5.161-.674,7.638-2.536,8.825-4.166a3.435,3.435,0,0,1-1.737.469H91.352a3.33,3.33,0,0,1-3.372-3.278v-6.01a3.235,3.235,0,0,1,1.156-2.473l-.844.194c-.04.01-.076.021-.111.031l-.108.031-.191.053c-.208.06-.409.124-.6.192l-.141.05c-.11.042-.22.084-.324.128l-.024.01c-.2.087-.4.18-.594.284l-.075.04a6.254,6.254,0,0,0-.753.48l-.045.033c-.124.1-.245.2-.351.293Z" fill="#004291"/><rect width="4.732" height="19.964" transform="translate(6.782 5.56)" fill="#004291"/></g><path d="M4704,581V561.036h4.732V581Zm94.1-.032c.188-.049.371-.1.551-.152l.123-.038c.144-.043.282-.088.419-.131.06-.019.117-.04.176-.061q.171-.058.34-.12l.179-.067c.106-.041.21-.081.313-.123l.169-.07c.1-.043.2-.088.3-.133l.148-.067c.107-.05.211-.1.315-.153l.107-.054c.278-.142.541-.292.788-.443l.025-.016c.112-.07.22-.141.326-.21l.072-.051c.09-.061.175-.123.259-.184l.079-.057c.079-.061.158-.122.234-.184.023-.017.046-.035.068-.055.08-.064.155-.129.231-.194l.048-.043c.088-.077.17-.154.25-.232l.007-.006a7.514,7.514,0,0,0,.685-.751l0,0c.063-.08.124-.159.182-.238l.012-.017c.055-.077.108-.153.159-.229a.061.061,0,0,0,.009-.012,6.519,6.519,0,0,0,.7-1.346.061.061,0,0,1,0-.008c.024-.062.045-.124.066-.184a.071.071,0,0,0,0-.016c.02-.057.038-.114.052-.167,0-.007,0-.013.007-.019.016-.054.03-.1.043-.157,0,0,0-.01,0-.015.013-.051.027-.1.038-.147a.042.042,0,0,0,0-.012,3.19,3.19,0,0,0,.106-.811v-5.981l-.02-.8c0-.124-.012-.25-.021-.346-.009-.115-.021-.24-.033-.346l0-.029c-.013-.129-.03-.265-.052-.394a.341.341,0,0,0-.007-.045l-.077-.423-.012-.049c-.014-.069-.031-.139-.045-.2a.654.654,0,0,0-.017-.073l-.06-.231c-.02-.067-.039-.134-.061-.2l-.04-.13-.05-.147c-.009-.026-.02-.055-.027-.072-.02-.056-.039-.111-.06-.167l-.033-.081c-.027-.07-.056-.139-.082-.195-.011-.028-.022-.055-.04-.094l-.112-.236c-.032-.066-.066-.131-.1-.194l-.054-.1c-.033-.057-.064-.114-.1-.177l-.055-.085c-.033-.056-.069-.111-.106-.167l-.057-.081c-.045-.068-.095-.134-.142-.2-.021-.026-.042-.051-.056-.07-.04-.054-.083-.1-.122-.15a.72.72,0,0,0-.063-.073c-.055-.066-.113-.129-.18-.2-.021-.023-.042-.045-.061-.063-.052-.055-.107-.107-.164-.159-.02-.019-.042-.039-.057-.052-.063-.058-.129-.113-.193-.167l-.079-.063c-.073-.057-.146-.113-.222-.168-.021-.016-.043-.03-.061-.041-.067-.046-.136-.091-.226-.147l-.055-.035c-.085-.051-.173-.1-.263-.148l-.078-.04c-.083-.041-.167-.081-.268-.128l-.039-.018-.009,0c4.4.34,7.86,3.381,7.86,7.069v5.766c0,3.917-3.9,7.1-8.684,7.1Zm-9.306,0c-4.3,0-7.8-3.187-7.8-7.1v-4.629l0-.027c0-.015.007-.034.012-.055l.007-.032c.008-.029.018-.062.032-.1l.007-.023c.014-.045.033-.1.062-.171s.055-.134.095-.216c.033-.067.07-.14.112-.211l.027-.046c.041-.069.087-.143.132-.212l.062-.086c.05-.069.1-.139.157-.207l.042-.053.038-.045a4.817,4.817,0,0,1,.366-.374l.046-.041c.106-.1.228-.2.351-.293l.044-.033a6.531,6.531,0,0,1,.754-.48l.075-.039c.194-.1.389-.2.593-.284l.024-.01c.1-.045.214-.088.325-.129.046-.017.091-.033.142-.049.189-.068.39-.133.6-.193l.191-.053.109-.03c.034-.011.07-.022.109-.032l.844-.195a3.235,3.235,0,0,0-1.155,2.474v6.009a3.329,3.329,0,0,0,3.371,3.279h13.765a3.421,3.421,0,0,0,1.737-.469c-1.187,1.629-3.663,3.491-8.824,4.166Zm24.277-.011V561.033h14.758a9.412,9.412,0,0,1,4.724.973,4.724,4.724,0,0,1,2.132,4.341,9.708,9.708,0,0,1-.242,2.48,3.569,3.569,0,0,1-.751,1.416c1.311.827,1.976,2.363,1.976,4.578,0,2.168-.555,3.754-1.648,4.714a7.4,7.4,0,0,1-4.965,1.421Zm4.645-4.169h10.932c1.708,0,2.4-.632,2.4-2.18,0-.973-.3-1.967-2.54-1.967h-10.8Zm0-8.315h10.168c1.922,0,2.187-.767,2.187-1.6,0-.885-.27-1.7-2.215-1.7h-10.14Zm21.562,12.483v-19.9H4844v19.9Zm-66.029,0v-11.83a3.7,3.7,0,0,0-1.172-2.922,4.773,4.773,0,0,0-3.25-1.055h-4a4.766,4.766,0,0,0-3.249,1.055,3.653,3.653,0,0,0-1.173,2.922v11.83h-4.644v-11.83a3.7,3.7,0,0,0-1.172-2.922,4.775,4.775,0,0,0-3.251-1.055h-4a4.766,4.766,0,0,0-3.249,1.055,3.648,3.648,0,0,0-1.173,2.922v11.83h-4.642v-11.43a8.113,8.113,0,0,1,2.429-6.311,9.555,9.555,0,0,1,6.634-2.182h4a9.551,9.551,0,0,1,6.635,2.182c.039.035.072.075.109.112.038-.036.071-.077.111-.112a9.554,9.554,0,0,1,6.633-2.182h4a9.55,9.55,0,0,1,6.634,2.182,8.11,8.11,0,0,1,2.429,6.311v11.43Zm-43.292,0v-11.83a3.7,3.7,0,0,0-1.172-2.922,4.772,4.772,0,0,0-3.25-1.055h-4a4.763,4.763,0,0,0-3.248,1.055,3.652,3.652,0,0,0-1.172,2.922v11.83h-4.644v-11.43a8.119,8.119,0,0,1,2.43-6.311,9.555,9.555,0,0,1,6.634-2.182h4a9.553,9.553,0,0,1,6.635,2.182,8.118,8.118,0,0,1,2.431,6.311v11.43ZM4788.83,561h10.222c.146,0,.286,0,.424.01h.03l.154.011c.078,0,.153.011.23.019.1.009.194.018.288.032l.035,0c.1.015.193.03.287.047l.1.021a5.177,5.177,0,0,1,3.928,3.212s0,.008,0,.012q.086.206.157.412l.078.24c.033.1.061.2.087.3l.027.108c.025.1.047.2.068.293l.046.252a3.405,3.405,0,0,0-2.665-1.273H4788.57c-.118,0-.237.007-.338.017h-.036l-.1.007-.023,0-.186.015h0l-.042,0-.03,0h0l-.024,0-.06,0c-.1.01-.2.023-.316.036h0l-.035,0c-.112.015-.232.03-.359.049l-.018,0-.062.009-.042.006h-.008c-.145.023-.3.049-.454.078h0c-.332.062-.689.139-1.059.237-.049.012-.092.026-.136.038s-.058.018-.09.026c-.07.018-.139.039-.206.057-.217.063-.43.131-.628.2l-.152.052c-.114.045-.228.088-.334.133l-.024.011c-.224.094-.437.2-.646.308l-.1.052a6.705,6.705,0,0,0-.824.529l-.023.016c-.049.038-.094.075-.141.112-.09.074-.179.147-.258.22l-.05.045a5.041,5.041,0,0,0-.412.423l-.029.035c-.013.017-.026.033-.052.068-.063.077-.12.153-.18.233l-.064.094c-.01.016-.022.033-.032.047C4781.119,564.071,4784.586,561,4788.83,561Z" fill="#0b4dcc"/></g></svg>